<svg height="12.375" viewBox="0 0 41.57 12.375" width="41.57" xmlns="http://www.w3.org/2000/svg"><path d="m1663.7 101.73h.95l-6.62 12.366h-.94zm3.78 0h.94l-6.61 12.366h-.94zm3.78 0h.94l-6.61 12.366h-.94zm3.78 0h.94l-6.61 12.366h-.95zm3.77 0h.95l-6.61 12.366h-.95zm3.78 0h.95l-6.62 12.366h-.94zm3.78 0h.94l-6.61 12.37h-.94zm3.78 0h.94l-6.61 12.366h-.94zm3.77 0h.95l-6.61 12.366h-.95zm3.78 0h.95l-6.61 12.366h-.95z" fill="#fff" fill-rule="evenodd" opacity=".6" transform="translate(-1657.09 -101.719)"/></svg>